<svg width="1356" height="499" viewBox="0 0 1356 499" fill="none" xmlns="http://www.w3.org/2000/svg">
<path d="M220.251 120.631L179.574 400.548H132.944L110.786 216.269L88.6292 400.548H41.0073L0 120.631H42.3304L65.4793 309.574L88.2982 120.631H131.291L154.44 309.574L177.258 120.631H220.251Z" fill="white"/>
<path d="M249.353 335.9V183.279C249.353 165.249 256.46 147.958 269.112 135.209C281.764 122.461 298.924 115.299 316.817 115.299C334.71 115.299 351.87 122.461 364.522 135.209C377.174 147.958 384.282 165.249 384.282 183.279V335.9C384.282 353.929 377.174 371.22 364.522 383.969C351.87 396.718 334.71 403.88 316.817 403.88C298.924 403.88 281.764 396.718 269.112 383.969C256.46 371.22 249.353 353.929 249.353 335.9V335.9ZM342.281 335.9V183.279C342.281 176.473 339.598 169.946 334.823 165.134C330.047 160.322 323.571 157.619 316.817 157.619C310.063 157.619 303.587 160.322 298.811 165.134C294.036 169.946 291.353 176.473 291.353 183.279V335.9C291.353 342.705 294.036 349.231 298.811 354.043C303.587 358.855 310.063 361.558 316.817 361.558C323.571 361.558 330.047 358.855 334.823 354.043C339.598 349.231 342.281 342.705 342.281 335.9V335.9Z" fill="white"/>
<path d="M521.195 400.547L490.44 284.915H468.613V400.547H426.613V120.63H492.755C501.605 119.986 510.489 121.267 518.804 124.388C527.119 127.509 534.67 132.398 540.944 138.72C547.218 145.042 552.068 152.65 555.166 161.029C558.264 169.407 559.536 178.36 558.896 187.277V218.268C559.515 229.516 557.144 240.726 552.028 250.743C546.912 260.76 539.237 269.22 529.794 275.251L565.18 400.547H521.195ZM468.613 244.926H490.44C493.916 245.293 497.431 244.872 500.726 243.696C504.021 242.519 507.013 240.616 509.485 238.125C511.957 235.634 513.846 232.619 515.013 229.299C516.181 225.979 516.598 222.437 516.235 218.934V185.611C516.598 182.107 516.181 178.567 515.013 175.247C513.846 171.927 511.957 168.91 509.485 166.42C507.013 163.929 504.021 162.026 500.726 160.85C497.431 159.673 493.916 159.252 490.44 159.618H468.613V244.926Z" fill="white"/>
<path d="M657.112 285.249L641.238 316.239V400.548H599.238V120.631H641.238V235.93L696.796 122.297H742.104L682.907 240.928L746.402 402.214H702.419L657.112 285.249Z" fill="white"/>
<path d="M810.889 498.519L879.675 118.964H921.676L900.841 235.93H950.778L992.116 0H1033.12L962.683 397.881H920.684L942.51 275.918H892.573L852.227 497.519L810.889 498.519Z" fill="#32CD32"/>
<path d="M1017.59 335.9L1044.71 183.279C1047.87 164.394 1057.66 147.281 1072.28 135.051C1086.91 122.82 1105.4 116.285 1124.41 116.632C1132.85 115.827 1141.37 117.106 1149.21 120.359C1157.06 123.612 1164 128.74 1169.43 135.302C1174.87 141.864 1178.64 149.661 1180.42 158.02C1182.2 166.379 1181.93 175.048 1179.63 183.279L1152.19 335.9C1149.16 354.787 1139.46 371.935 1124.87 384.183C1110.29 396.43 1091.8 402.952 1072.82 402.547C1064.35 403.434 1055.8 402.211 1047.91 398.984C1040.02 395.757 1033.05 390.626 1027.59 384.042C1022.13 377.459 1018.37 369.624 1016.62 361.229C1014.88 352.834 1015.21 344.136 1017.59 335.9V335.9ZM1110.19 335.9L1137.63 183.279C1140.61 165.617 1132.67 155.62 1117.13 155.62C1109.55 155.583 1102.23 158.399 1096.6 163.514C1090.98 168.63 1087.45 175.678 1086.71 183.279L1059.59 335.9C1056.28 353.561 1064.55 363.558 1080.09 363.558C1087.64 363.587 1094.91 360.761 1100.49 355.639C1106.06 350.516 1109.52 343.472 1110.19 335.9V335.9Z" fill="#32CD32"/>
<path d="M1233.54 118.964H1299.68C1308.1 118.06 1316.62 119.289 1324.45 122.538C1332.29 125.788 1339.2 130.955 1344.55 137.573C1349.9 144.191 1353.53 152.05 1355.11 160.438C1356.69 168.826 1356.16 177.478 1353.58 185.611L1347.63 218.934C1345.04 237.712 1335.69 254.877 1321.36 267.165C1307.04 279.453 1288.73 286.007 1269.92 285.581H1246.1L1225.93 399.214H1183.6L1233.54 118.964ZM1274.88 245.26C1282.28 245.647 1289.55 243.173 1295.2 238.343C1300.86 233.512 1304.47 226.69 1305.3 219.268L1311.25 185.944C1314.23 169.616 1306.62 159.952 1290.42 159.952H1268.59L1253.05 246.259L1274.88 245.26Z" fill="#32CD32"/>
</svg>
